<svg id="Capa_1" enable-background="new 0 0 512 512" height="512" viewBox="0 0 512 512" width="512" xmlns="http://www.w3.org/2000/svg"><g><path d="m136.063 271h104.938v104.938h-104.938z"/><path d="m0 271h106.063v104.938h-106.063z"/><path d="m0 136.062h106.063v104.938h-106.063z"/><path d="m136.063 136.062h104.938v104.938h-104.938z"/><path d="m405.938 0h106.063v106.062h-106.063z"/><path d="m136.063 0h104.938v106.062h-104.938z"/><path d="m271 0h104.938v106.062h-104.938z"/><path d="m271 136.062h104.938v104.938h-104.938z"/><path d="m0 0h106.063v106.062h-106.063z"/><path d="m136.063 405.938h104.938v106.062h-104.938z"/><path d="m405.938 405.938h106.063v106.062h-106.063z"/><path d="m405.938 136.062h106.063v104.938h-106.063z"/><path d="m0 405.938h106.063v106.062h-106.063z"/><path d="m271 405.938h104.938v106.062h-104.938z"/><path d="m271 271h104.938v104.938h-104.938z"/><path d="m405.938 271h106.063v104.938h-106.063z"/></g></svg>